<svg xmlns="http://www.w3.org/2000/svg" xmlns:xlink="http://www.w3.org/1999/xlink" width="198" height="40" fill="none" xmlns:v="https://vecta.io/nano"><g clip-path="url(#A)"><path d="M131.967.037c-1.347.212-3.018.822-4.376 1.602-3.379 1.942-5.49 4.859-6.094 8.414-.297 1.756-.207 3.91.228 5.576 1.108 4.207 4.338 7.045 9.42 8.281l.583.143 3.58.027 3.581.032.461.165c.743.265 1.231.573 1.766 1.109.547.541.838 1.029 1.045 1.756.101.355.122.541.122 1.241 0 .705-.016.875-.117 1.194-.413 1.305-1.628 2.297-3.352 2.737-.376.095-.71.101-8.926.101h-8.529v3.793V40h7.972l8.603-.053c2.509-.212 5.118-.849 7.16-1.751 1.936-.854 3.628-2.074 4.063-2.928l.106-.202.753.759c.86.865 1.374 1.289 2.318 1.92 3.453 2.302 7.643 2.859 11.526 1.533 1.151-.398 2.45-1.061 3.395-1.74.228-.164.435-.297.461-.297s.26.127.515.281c2.036 1.231 4.211 2.032 6.38 2.35.531.08 1.263.096 5.463.111l5.644-.032c4.121-.302 7.611-1.862 9.675-4.329 1.304-1.554 2.047-3.363 2.355-5.703.031-.276.063-1.04.063-1.698-.01-5.114-1.883-8.806-5.431-10.711a12.53 12.53 0 0 0-3.368-1.119c-.202-.032-.43-.074-.504-.09s-1.814-.048-3.872-.069c-3.246-.032-3.777-.048-4.031-.122-1.422-.424-2.233-1.469-2.44-3.135-.292-2.302.827-4.064 3.087-4.838l.599-.207 8.078-.016 8.073-.011V3.952 0h-9.033c-10.014 0-9.404-.021-10.629.35-1.819.552-3.739 1.592-5.134 2.79-2.18 1.867-3.48 4.138-3.952 6.912-.111.637-.223 2.228-.175 2.419.043.149-.048.122-.228-.064-.254-.271-1.034-.912-1.591-1.305-3.251-2.313-7.325-3.034-11.133-1.968-1.676.467-3.421 1.369-4.853 2.515a19.08 19.08 0 0 0-2.281 2.302c-1.289 1.623-2.26 3.501-2.843 5.491l-.17.578-.398-.801c-.376-.748-.424-.812-.737-1.061-1.055-.843-2.371-1.448-3.835-1.772-.509-.111-.673-.122-4.19-.154-3.273-.032-3.692-.042-3.978-.127-.552-.165-1.029-.446-1.432-.849-.653-.658-.965-1.475-1.019-2.668-.037-.764.032-1.289.255-1.894.398-1.093 1.363-2.005 2.626-2.472.901-.34.275-.318 9.934-.318h8.81V3.952 0l-9.956.005-10.093.032zm27.979 16.223c2.408.419 4.375 3.088 4.826 6.536a14.92 14.92 0 0 1 0 3.003c-.27 2.069-1.108 3.931-2.307 5.141-2.912 2.923-6.874 1.289-8.333-3.443-.297-.95-.435-1.989-.435-3.199 0-.997.048-1.491.229-2.377.498-2.419 1.851-4.446 3.527-5.273a3.49 3.49 0 0 1 1.161-.387c.51-.095.785-.095 1.332 0zm14.199 5.708c1.363.886 3.474 1.708 5.15 2.011.546.101.822.106 3.861.106h3.273l.466.138c.881.255 1.682.759 2.239 1.416.88 1.034 1.188 2.759.732 4.08-.425 1.21-1.65 2.175-3.283 2.584-.451.117-.473.117-6.227.096-6.27-.016-5.962-.005-6.885-.313-.424-.138-1.193-.509-1.193-.573 0-.032.106-.297.233-.599.546-1.295.955-2.796 1.183-4.393.116-.843.127-3.554.005-4.361-.037-.281-.069-.514-.058-.514.005 0 .233.143.504.324z" fill="#ee1d25"/><g fill="#034ea2"><path d="M10.822 13.528v6.26h1.114 1.114v-6.26-6.26h-1.114-1.114v6.26zm18.988 0v6.26h1.114 1.114v-6.26-6.26h-1.114-1.114v6.26zm17.51-.355l.016 5.91.148.212a1.45 1.45 0 0 0 .403.355l.26.138h3.469 3.469l.233-.122c.133-.064.313-.218.408-.345l.175-.233v.35.35h1.92c1.851 0 1.925-.005 2.153-.111a1.28 1.28 0 0 0 .387-.329l.154-.212v.324.329h1.936c2.122 0 2.143 0 2.456-.318.345-.34.329-.164.329-4.355V11.3h-1.14-1.14v3.13 3.13h-1.193-1.193v-3.13-3.13h-1.14-1.14v3.13 3.13h-1.167-1.167v-3.13-3.13h-1.167-1.167v3.13 3.13h-2.016-2.016v-5.146-5.146h-1.14-1.14l.011 5.905zM85.392 7.48c-3.145.239-5.967 1.83-7.277 4.09-.329.568-.467.987-.504 1.512-.053.801.26 1.385.902 1.671l.276.127 3.421.027 3.591.122c.318.17.355.313.377 1.48l.021 1.05h-5.071-5.071v1.114 1.114l18.262-.011 18.268-.016.217-.154a1.1 1.1 0 0 0 .361-.435l.138-.281-.022-2.058-.137-2.467c-.059-.223-.149-.483-.197-.578-.154-.297-.493-.61-.811-.753-.626-.281-.944-.308-4.185-.34l-2.986-.064c0-.101.435-.663.763-.987.663-.652 1.613-1.21 2.631-1.533.738-.239 1.279-.345 2.159-.419l.732-.064.037-1.061c.021-.78.016-1.072-.026-1.103-.085-.053-1.088.005-1.788.101-2.838.403-5.336 1.931-6.534 4.005-.329.568-.467.987-.504 1.512-.053.801.26 1.385.901 1.671l.276.127 3.421.027 3.591.122c.318.17.355.313.377 1.48l.021 1.05h-5.813-5.814l-.011-2.934-.016-2.939-.154-.218a1.08 1.08 0 0 0-.424-.355l-.27-.127-2.122-.016c-2.106-.016-2.127-.016-2.493.106-1.421.477-2.472 1.554-2.949 3.008-.111.345-.122.488-.143 1.921l-.021 1.554h-1.156-1.156l-.021-1.395c-.021-1.194-.042-1.448-.138-1.798a3.94 3.94 0 0 0-.196-.578c-.154-.297-.493-.61-.811-.753-.626-.281-.944-.308-4.185-.34l-2.986-.064c0-.101.435-.663.764-.987.663-.652 1.612-1.21 2.631-1.533.737-.239 1.278-.345 2.159-.419l.732-.064.037-1.061c.021-.78.016-1.072-.026-1.098-.074-.048-.329-.042-1.045.011zm11.287 5.714l.435.032v2.165 2.17h-2.021-2.016l.016-1.448c.016-1.432.016-1.443.154-1.74a2.23 2.23 0 0 1 1.284-1.135c.244-.08 1.411-.101 2.148-.042z"/><use xlink:href="#B"/><path d="M40.947 8.164c-.276.058-.488.186-.7.419-.568.626-.255 1.655.573 1.899 1.045.302 1.941-.753 1.443-1.703a1.27 1.27 0 0 0-1.315-.615zm-15.539 6.265v3.13h-2.557-2.562v-1.363l-.048-2.605-.048-1.231h-1.13-1.135v.249l.058 1.931c.148 4.127-.223 6.069-1.379 7.21-.562.552-1.231.838-2.191.928l-.361.037v1.114 1.119l.493-.042c1.692-.127 2.816-.615 3.792-1.639a4.98 4.98 0 0 0 .971-1.427c.186-.382.562-1.485.652-1.91l.032-.143h3.427c3.739 0 3.607.011 3.936-.318.345-.34.329-.164.329-4.355V11.3h-1.14-1.14v3.13zm-18.619.861l-.058 4.218c-.111.631-.568 1.151-1.236 1.411-.35.133-1.135.18-1.581.09-.658-.127-1.199-.525-1.485-1.103-.122-.249-.122-.265-.138-2.44l-.016-2.186h-1.14-1.14l.016 2.318c.027 2.573.027 2.599.387 3.337.525 1.077 1.517 1.862 2.785 2.207.393.106.568.122 1.379.117.859 0 .965-.011 1.4-.148.822-.249 1.368-.568 1.92-1.119.408-.403.52-.557.727-.981.456-.928.43-.6.451-5.374l.016-4.228H7.929h-1.14v3.883zm36.918 0l-.058 4.218c-.111.631-.567 1.151-1.236 1.411-.35.133-1.135.18-1.581.09-.658-.127-1.199-.525-1.485-1.103-.122-.249-.122-.265-.138-2.44l-.016-2.186h-1.14-1.14l.016 2.318c.026 2.573.026 2.599.387 3.337.525 1.077 1.517 1.862 2.785 2.207.393.106.568.122 1.379.117.859 0 .965-.011 1.4-.148.822-.249 1.368-.568 1.92-1.119.408-.403.52-.557.727-.981.456-.928.43-.6.451-5.374l.016-4.228h-1.146-1.14v3.883zm25.565-2.68l.058 1.931c.148 4.127-.223 6.069-1.379 7.21-.562.552-1.23.838-2.19.928l-.361.037v1.114 1.119l.493-.042c1.687-.127 2.801-.605 3.777-1.623.912-.95 1.464-2.212 1.777-4.042.218-1.3.249-2.716.127-5.968l-.037-.912h-1.135-1.13v.249zm-46.634 8.896c-.281.101-.44.212-.589.414-.43.584-.281 1.358.334 1.724a.93.93 0 0 0 .62.175c.732 0 1.236-.477 1.236-1.167 0-.472-.233-.854-.658-1.072-.265-.138-.69-.17-.944-.074zm2.824.001c-.472.154-.801.626-.801 1.146 0 .923.96 1.464 1.809 1.018.838-.435.822-1.655-.026-2.09a1.42 1.42 0 0 0-.981-.074z"/></g><g fill="#ee1d25"><path d="M1.116 34.005v5.73h.769.769v-5.73-5.729h-.769-.769v5.729zm38.456-5.613l-2.387 5.698-2.339 5.613c0 .021.313.027.7.021l.695-.016.663-1.581.663-1.576h2.583 2.583l.599 1.57.663 1.592c.032.016.403.016.827.011l.769-.016-2.212-5.703-2.206-5.703-.78-.016c-.764-.011-.774-.011-.822.106zm1.671 4.339l1.013 2.637c.021.053-.419.069-2.106.069s-2.127-.016-2.106-.069l2.063-4.987c.064-.138.117-.244.127-.239.005.011.462 1.178 1.008 2.589zm21.506-3.766v.69h.69.69v-.69-.69h-.69-.69v.69zm12.408 1.539v.955h-.742-.743v.584.584h.743.742v2.53c0 2.679.021 2.955.26 3.485.138.318.536.737.88.934.705.403 1.575.467 2.827.207l.276-.053v-.578-.573l-.409.111c-1.108.297-1.968.032-2.27-.69-.143-.334-.186-1.093-.186-3.263v-2.111l1.236-.011 1.231-.016v-.557-.557l-1.231-.016-1.236-.011v-.955-.955h-.69-.69v.955zm-66.907.822c-.69.175-1.358.663-1.777 1.294l-.191.286-.016-.721-.016-.727h-.684-.69v4.138 4.138h.684.684l.027-2.424c.032-2.663.053-2.881.355-3.496.196-.398.61-.801 1.066-1.035.451-.228 1.061-.271 1.575-.111l.329.106v-.706c0-.621-.011-.711-.09-.743-.196-.08-.944-.08-1.257 0zm4.909 0c-.88.191-1.421.477-1.894.997-.329.361-.509.706-.541 1.05l-.027.26h.743.742l.032-.191c.048-.297.276-.631.552-.812.403-.265.727-.34 1.443-.313.721.026 1.055.143 1.352.467.244.271.297.488.297 1.204v.594l-.196.037-2.249.499c-2.074.594-2.832 1.3-2.822 2.626.005.743.276 1.279.865 1.719.461.339.864.456 1.591.456.96 0 1.543-.233 2.387-.955l.398-.334.037.218a8.35 8.35 0 0 0 .127.552l.085.334h.743c.684 0 .742-.005.705-.09-.021-.053-.085-.308-.138-.573-.096-.424-.106-.769-.133-3.13-.032-2.934-.058-3.215-.345-3.655-.297-.44-1.05-.828-1.925-.982a6.81 6.81 0 0 0-1.83.021zm2.647 5.623c-.186.939-.981 1.745-1.931 1.936-.992.202-1.878-.461-1.761-1.31s.859-1.305 3.013-1.846l.705-.175.016.536a5.1 5.1 0 0 1-.042.859zm7.187-5.65c-.811.175-1.639.743-2.031 1.39-.048.085-.106.148-.127.148s-.043-.313-.043-.69v-.69h-.689-.689v4.138 4.138h.684.684l.027-2.424.138-2.843c.143-.552.339-.897.7-1.263.44-.44.891-.647 1.474-.674.371-.016.509 0 .753.09.371.143.695.414.833.711.191.393.223.939.223 3.729v2.674h.69.69v-3.066c0-3.3-.016-3.48-.287-4.074-.249-.541-.811-1.003-1.501-1.22a4.78 4.78 0 0 0-1.528-.074zm25.99.022c-1.013.196-1.687.674-2.063 1.464-.138.292-.17.419-.18.822-.026.647.101.997.514 1.411.403.398.827.594 2.286 1.029 1.246.371 1.395.43 1.692.653a1.1 1.1 0 0 1 .377.7c0 .409-.313.875-.774 1.146-.493.292-1.448.355-2.143.149-.387-.111-.769-.483-.822-.79l-.053-.281c-.016-.048-.207-.064-.721-.064h-.7l.032.255c.111.944.864 1.703 2 2.011.265.074.552.096 1.22.096s.955-.021 1.22-.096c.562-.148 1.002-.398 1.358-.753.536-.531.764-1.093.764-1.894 0-.552-.117-.923-.398-1.247-.371-.435-.748-.599-2.445-1.072-1.262-.35-1.533-.462-1.814-.732l-.233-.223.021-.371c.016-.318.043-.398.18-.573.09-.111.302-.276.472-.361.302-.154.334-.159 1.056-.159.711 0 .764.005 1.05.149.313.154.52.398.52.615 0 .106.021.111.721.111h.721l-.032-.202c-.159-.891-.742-1.496-1.671-1.735a7.14 7.14 0 0 0-2.153-.058zm7.899 0c-1.013.196-1.687.674-2.063 1.464-.138.292-.17.419-.18.822-.026.647.101.997.514 1.411.403.398.827.594 2.286 1.029 1.246.371 1.395.43 1.692.653a1.1 1.1 0 0 1 .377.7c0 .409-.313.875-.774 1.146-.493.292-1.448.355-2.143.149-.387-.111-.769-.483-.822-.79l-.053-.281c-.016-.048-.207-.064-.721-.064h-.7l.032.255c.111.944.864 1.703 2 2.011.265.074.552.096 1.22.096s.955-.021 1.22-.096c.562-.148 1.002-.398 1.358-.753.536-.531.764-1.093.764-1.894 0-.552-.117-.923-.398-1.247-.371-.435-.748-.599-2.445-1.072-1.262-.35-1.533-.462-1.814-.732l-.233-.223.021-.371c.016-.318.042-.398.18-.573.09-.111.302-.276.472-.361.302-.154.334-.159 1.056-.159.711 0 .764.005 1.05.149.313.154.52.398.52.615 0 .106.021.111.721.111h.721l-.032-.202c-.159-.891-.742-1.496-1.671-1.735-.472-.122-1.66-.154-2.154-.058zm11.567 0c-1.013.196-1.687.674-2.063 1.464a1.61 1.61 0 0 0-.18.822c-.026.647.101.997.514 1.411.403.398.827.594 2.286 1.029 1.246.371 1.395.43 1.692.653a1.1 1.1 0 0 1 .377.7c0 .409-.313.875-.774 1.146-.493.292-1.448.355-2.143.149-.387-.111-.769-.483-.822-.79l-.053-.281c-.016-.048-.207-.064-.721-.064h-.7l.032.255c.111.944.864 1.703 2 2.011.265.074.552.096 1.22.096s.955-.021 1.22-.096c.562-.148 1.002-.398 1.358-.753.536-.531.764-1.093.764-1.894 0-.552-.117-.923-.398-1.247-.371-.435-.748-.599-2.445-1.072-1.262-.35-1.533-.462-1.814-.732l-.233-.223.021-.371c.016-.318.042-.398.18-.573.09-.111.302-.276.472-.361.302-.154.334-.159 1.056-.159.711 0 .764.005 1.05.149.313.154.52.398.52.615 0 .106.021.111.721.111h.721l-.032-.202c-.159-.891-.743-1.496-1.671-1.735-.472-.122-1.66-.154-2.153-.058zm14.987.005c-.88.191-1.422.477-1.894.997-.329.361-.509.706-.541 1.05l-.027.26h.743.743l.032-.191c.048-.297.276-.631.552-.812.403-.265.727-.34 1.443-.313.721.026 1.056.143 1.353.467.244.271.297.488.297 1.204v.594l-.196.037-2.249.499c-2.074.594-2.832 1.3-2.822 2.626.005.743.276 1.279.865 1.719.462.339.865.456 1.591.456.96 0 1.543-.233 2.387-.955l.398-.334.037.218a8.77 8.77 0 0 0 .127.552l.085.334h.743c.684 0 .743-.005.706-.09-.021-.053-.085-.308-.138-.573-.095-.424-.106-.769-.133-3.13-.032-2.934-.058-3.215-.345-3.655-.297-.44-1.05-.828-1.925-.982a6.81 6.81 0 0 0-1.83.021zm2.647 5.623c-.186.939-.981 1.745-1.931 1.936-.992.202-1.878-.461-1.761-1.31s.859-1.305 3.013-1.846l.706-.175.016.536c.011.297-.011.684-.043.859zm7.186-5.65c-.811.175-1.639.743-2.031 1.39-.048.085-.106.148-.127.148s-.042-.313-.042-.69v-.69h-.689-.69v4.138 4.138h.684.684l.026-2.424.138-2.843a2.53 2.53 0 0 1 .7-1.263c.44-.44.891-.647 1.475-.674.371-.016.509 0 .753.09.371.143.695.414.833.711.191.393.223.939.223 3.729v2.674h.689.689v-3.066c0-3.3-.016-3.48-.286-4.074-.249-.541-.811-1.003-1.501-1.22a4.78 4.78 0 0 0-1.528-.074zm8.21-.004c-1.31.212-2.264.96-2.752 2.17-.541 1.342-.493 3.321.111 4.546.637 1.279 1.782 1.936 3.395 1.936.732 0 1.278-.111 1.814-.371.747-.366 1.32-1.072 1.384-1.703l.026-.26h-.694c-.759 0-.706-.027-.78.35-.117.589-1.061.976-2.026.828a2.22 2.22 0 0 1-1.294-.626c-.35-.334-.573-.737-.722-1.294-.143-.536-.127-2.053.026-2.621.212-.775.62-1.289 1.278-1.613l.398-.196h.716c.684 0 .737.005 1.029.154.361.175.589.451.642.775l.031.212h.701.694l-.031-.286c-.085-.822-.934-1.629-2.027-1.92a7.69 7.69 0 0 0-1.92-.08zm8.57.006a3.77 3.77 0 0 0-2.403 1.512c-1.251 1.751-1.129 4.509.271 6.016.743.801 1.782 1.167 3.166 1.109 1.093-.048 1.873-.377 2.488-1.04.318-.345.52-.769.52-1.098v-.186h-.69-.689v.154c0 .233-.303.637-.615.812-.589.324-1.687.324-2.398-.011-.838-.393-1.443-1.379-1.501-2.446l-.021-.34 2.991-.016 2.992-.011-.032-.838c-.042-1.316-.313-2.08-.965-2.748-.695-.711-1.963-1.061-3.114-.87zm1.56 1.284a2.6 2.6 0 0 1 .535.355 2.43 2.43 0 0 1 .674 1.581v.228h-2.286c-2.148 0-2.281-.005-2.254-.096a5.72 5.72 0 0 0 .084-.329c.154-.594.722-1.379 1.178-1.629.477-.26.583-.281 1.183-.265.498.011.626.032.886.154zm-48.86 3.011v4.138h.69.69v-4.138-4.138h-.69-.69v4.138z"/></g></g><defs><clipPath id="A"><path fill="#fff" d="M0 0h198v40H0z"/></clipPath><path id="B" d="M4.029 8.164c-.276.058-.488.186-.7.419-.568.626-.255 1.655.573 1.899 1.045.302 1.941-.753 1.443-1.703a1.27 1.27 0 0 0-1.315-.615z"/></defs></svg>